HIERARCHY
ROOT Hip
{
  OFFSET 0.0 0.0 0.0
  CHANNELS 6 Xposition Yposition Zposition Xrotation Yrotation Zrotation
  JOINT LowerSpine
  {
    OFFSET 0.0 0.061367 -0.03653
    CHANNELS 3 Xrotation Yrotation Zrotation
    JOINT MiddleSpine
    {
      OFFSET 0.0 0.056002 0.002633
      CHANNELS 3 Xrotation Yrotation Zrotation
      JOINT Chest
      {
        OFFSET 0.0 0.069296 -0.013882
        CHANNELS 3 Xrotation Yrotation Zrotation
        JOINT Neck
        {
          OFFSET 0.0 0.156156 -0.002923
          CHANNELS 3 Xrotation Yrotation Zrotation
          JOINT Head
          {
            OFFSET 0.0 0.088183 0.023986
            CHANNELS 3 Xrotation Yrotation Zrotation
            End Site
            {
              OFFSET 1e-06 0.123215 0.003678
            }
          }
        }
        JOINT LClavicle
        {
          OFFSET 0.014189 0.150698 0.046467
          CHANNELS 3 Xrotation Yrotation Zrotation
          JOINT LShoulder
          {
            OFFSET 0.082893 0.021616 -0.034976
            CHANNELS 3 Xrotation Yrotation Zrotation
            JOINT LForearm
            {
              OFFSET 0.195645 -0.000695 -0.001695
              CHANNELS 3 Xrotation Yrotation Zrotation
              JOINT LHand
              {
                OFFSET 0.163209 0.000474 -0.000977
                CHANNELS 3 Xrotation Yrotation Zrotation
                End Site
                {
                  OFFSET 0.0 0.006864 0.0
                }
              }
            }
          }
        }
        JOINT RClavicle
        {
          OFFSET -0.014189 0.150698 0.046467
          CHANNELS 3 Xrotation Yrotation Zrotation
          JOINT RShoulder
          {
            OFFSET -0.082908 0.021619 -0.034982
            CHANNELS 3 Xrotation Yrotation Zrotation
            JOINT RForearm
            {
              OFFSET -0.195645 -0.000695 -0.001695
              CHANNELS 3 Xrotation Yrotation Zrotation
              JOINT RHand
              {
                OFFSET -0.163209 0.000474 -0.000977
                CHANNELS 3 Xrotation Yrotation Zrotation
                End Site
                {
                  OFFSET 0.0 0.006864 0.0
                }
              }
            }
          }
        }
      }
    }
  }
  JOINT RThigh
  {
    OFFSET -0.072558 0.02774 -0.005953
    CHANNELS 3 Xrotation Yrotation Zrotation
    JOINT RShin
    {
      OFFSET -0.005253 -0.285537 0.0
      CHANNELS 3 Xrotation Yrotation Zrotation
      JOINT RFoot
      {
        OFFSET 0.0 -0.28038 0.0
        CHANNELS 3 Xrotation Yrotation Zrotation
        JOINT RToe
        {
          OFFSET 0.0 -0.030816 0.064441
          CHANNELS 3 Xrotation Yrotation Zrotation
          End Site
          {
            OFFSET 0.0 0.0 0.043231
          }
        }
      }
    }
  }
  JOINT LThigh
  {
    OFFSET 0.072557 0.027741 -0.005953
    CHANNELS 3 Xrotation Yrotation Zrotation
    JOINT LShin
    {
      OFFSET 0.005253 -0.285539 0.0
      CHANNELS 3 Xrotation Yrotation Zrotation
      JOINT LFoot
      {
        OFFSET 0.0 -0.28038 0.0
        CHANNELS 3 Xrotation Yrotation Zrotation
        JOINT LToe
        {
          OFFSET 0.0 -0.030816 0.064441
          CHANNELS 3 Xrotation Yrotation Zrotation
          End Site
          {
            OFFSET 0.0 0.0 0.043231
          }
        }
      }
    }
  }
}
MOTION
Frames: 9
Frame Time: 0.03333333333333333
-0.00092 0.573426 0.004949 0.815568 0.128121 -2.080502 -0.692009 0.240364 0.403895 0.087977 1.433663 0.681558 0.15501 1.251357 3.992453 -0.680187 -0.051608 -0.512642 0.011691 -0.029003 -0.002845 -1.279838 -0.436868 -15.270046 18.758915 -15.200189 -58.934452 5.03721 -23.478312 -1.525493 0.006098 0.041692 0.003516 0.615602 0.1003 4.481539 -30.658138 7.85387 30.762058 143.483307 77.001221 179.490234 -0.006717 -0.067908 -0.001977 -0.261498 0.502511 -3.153879 0.140779 -0.233358 -0.01641 -2.718401 1.48592 0.765208 0.058889 0.131359 0.032071 3.582807 -1.078378 1.006068 -0.344568 1.295749 2.268781 -4.635513 3.389143 2.090546 0.02532 0.008979 0.000688 
-0.001322 0.574125 0.004939 0.895779 0.260919 -2.066828 -0.727685 0.243017 0.413078 0.085021 1.443988 0.672642 0.037309 1.205179 3.942849 -0.711908 -0.055391 -0.51819 0.010925 -0.027427 -0.003464 -1.283708 -0.413685 -15.270397 18.905558 -15.108213 -58.587193 5.063725 -23.428209 -1.539691 0.005676 0.040948 0.0038 0.598724 0.053751 4.350128 -30.402304 8.169677 30.361799 144.434586 76.339226 178.967178 -0.002028 -0.067747 -0.001529 -0.193063 0.317248 -3.334714 0.13008 -0.36966 0.055031 -2.691704 1.475874 0.759085 0.062399 0.132323 0.029606 3.561956 -1.301622 0.875652 -0.350269 1.055884 2.324382 -4.59583 3.360698 2.076815 0.025296 0.009127 0.001022 
-0.001511 0.574323 0.0047 0.970629 0.307831 -2.069486 -0.747361 0.243354 0.41745 0.070052 1.442886 0.676746 -0.105226 1.155421 3.938878 -0.72837 -0.058653 -0.517035 0.01073 -0.024939 -0.003611 -1.279977 -0.387333 -15.278819 18.924398 -14.926655 -58.498112 5.045255 -23.502573 -1.566428 0.006401 0.041897 0.002356 0.591451 -0.007507 4.2435 -30.578262 8.361202 30.043892 144.753891 76.227753 178.737213 0.00229 -0.069619 -0.001201 -0.166732 0.114631 -3.449565 0.096723 -0.50359 0.127273 -2.648858 1.471125 0.753446 0.06633 0.136398 0.027903 3.466766 -1.464564 0.717591 -0.355102 0.869974 2.383942 -4.561662 3.343987 2.067877 0.025956 0.008694 0.001488 
-0.001446 0.573959 0.004296 1.058261 0.258883 -2.099561 -0.754426 0.244301 0.417127 0.043316 1.426455 0.693205 -0.256364 1.079114 3.961709 -0.72916 -0.062117 -0.509771 0.011061 -0.021887 -0.003423 -1.268733 -0.358449 -15.292983 18.822714 -14.665898 -58.639763 4.985716 -23.717657 -1.6062 0.007962 0.043888 -0.000572 0.594329 -0.07709 4.183875 -31.096533 8.323179 29.835546 144.541443 76.598495 178.707565 0.005608 -0.072444 -0.001037 -0.205354 -0.108561 -3.49794 0.049086 -0.641125 0.201443 -2.593073 1.468093 0.74757 0.069479 0.141616 0.026859 3.28956 -1.569047 0.546394 -0.346822 0.748361 2.452649 -4.537678 3.339834 2.062502 0.027025 0.007795 0.002088 
-0.001124 0.573094 0.003769 1.145801 0.097799 -2.1557 -0.746793 0.246897 0.413085 0.009197 1.393295 0.720063 -0.399441 0.976503 4.0134 -0.713298 -0.064674 -0.49654 0.011844 -0.018549 -0.002683 -1.253619 -0.330208 -15.326905 18.597403 -14.361749 -59.022091 4.870096 -23.997759 -1.662384 0.009981 0.046183 -0.004383 0.608696 -0.146644 4.186604 -31.920279 8.04748 29.778099 143.767868 77.461037 178.899673 0.007163 -0.075344 -0.001107 -0.306835 -0.325184 -3.454648 0.006251 -0.763128 0.260348 -2.530865 1.465708 0.740694 0.071301 0.14658 0.026649 3.051859 -1.6005 0.382906 -0.329734 0.713283 2.521895 -4.528465 3.354245 2.063746 0.028128 0.006828 0.002849 
-0.000666 0.57183 0.003186 1.207376 -0.200344 -2.249609 -0.716869 0.250262 0.407809 -0.028341 1.346771 0.761911 -0.516835 0.862959 4.091743 -0.68018 -0.062134 -0.476299 0.013327 -0.017881 -0.001696 -1.235034 -0.315316 -15.363595 18.242132 -14.061284 -59.604527 4.703745 -24.331688 -1.706225 0.012911 0.049745 -0.009663 0.628059 -0.212041 4.237932 -32.994629 7.554184 29.876669 142.378799 78.772736 179.401413 0.004435 -0.078338 -0.001838 -0.461552 -0.518759 -3.300316 0.005367 -0.867623 0.296086 -2.465585 1.469064 0.72972 0.070919 0.152238 0.028214 2.808731 -1.552307 0.27152 -0.290034 0.757535 2.581451 -4.54016 3.386734 2.076527 0.029904 0.004179 0.003089 
-0.000343 0.570315 0.002808 1.19029 -0.638047 -2.374232 -0.662923 0.246491 0.400319 -0.060789 1.301288 0.82558 -0.581873 0.837623 4.216067 -0.628871 -0.052044 -0.447739 0.015353 -0.024182 -0.000828 -1.212661 -0.322333 -15.401833 17.802372 -13.816687 -60.286938 4.50104 -24.710371 -1.723411 0.017721 0.055791 -0.017467 0.645736 -0.293178 4.300462 -34.299896 6.94387 30.058109 140.25827 80.563759 -179.563766 -0.006332 -0.080726 -0.003836 -0.59444 -0.639593 -3.013775 0.03762 -0.945759 0.304032 -2.404251 1.49521 0.71924 0.067781 0.160887 0.031924 2.700304 -1.406951 0.249471 -0.205235 0.813197 2.626672 -4.591537 3.432399 2.100549 0.032675 -0.00247 0.00181 
-0.000281 0.568708 0.002157 1.100442 -1.173807 -2.518187 -0.57325 0.231334 0.3884 -0.087832 1.26113 0.900394 -0.620713 0.848168 4.358419 -0.565404 -0.032746 -0.412273 0.018467 -0.039065 -0.000261 -1.191777 -0.394842 -15.401628 17.333704 -13.711151 -61.0494 4.335957 -25.116034 -1.670855 0.025474 0.066186 -0.029124 0.64291 -0.38571 4.341901 -35.705551 6.455594 30.312851 136.835602 82.812256 -177.320145 -0.021817 -0.086649 -0.006967 -0.723125 -0.65799 -2.608221 0.083111 -0.94369 0.288558 -2.346186 1.538425 0.700918 0.063543 0.178323 0.039728 2.682496 -1.166611 0.350558 -0.119195 0.928393 2.595239 -4.674036 3.480165 2.134017 0.038507 -0.014345 -0.002074 
-0.000394 0.567447 0.001647 0.972831 -1.644406 -2.668071 -0.47995 0.212231 0.373845 -0.113636 1.21498 0.964511 -0.590933 0.903535 4.49378 -0.513589 -0.013823 -0.369555 0.021004 -0.054851 -0.000936 -1.166471 -0.483865 -15.390827 16.916729 -13.651207 -61.733704 4.207529 -25.572861 -1.639941 0.03198 0.075238 -0.039477 0.640691 -0.430236 4.395749 -36.98653 5.932626 30.591393 131.29509 85.195068 -172.950821 -0.034289 -0.093227 -0.009946 -0.767051 -0.549495 -2.201377 0.115361 -0.858483 0.265089 -2.332087 1.588898 0.686712 0.058566 0.193342 0.047389 2.788933 -0.884124 0.517553 -0.031809 1.095976 2.55867 -4.774826 3.530951 2.164972 0.042917 -0.022794 -0.0053 
